<?xml version="1.0" encoding="UTF-8" standalone="no"?>
<!DOCTYPE svg PUBLIC "-//W3C//DTD SVG 1.1//EN" "http://www.w3.org/Graphics/SVG/1.1/DTD/svg11.dtd">
<svg width="100%" height="100%" viewBox="0 0 468 407" version="1.1" xmlns="http://www.w3.org/2000/svg" xmlns:xlink="http://www.w3.org/1999/xlink" xml:space="preserve" xmlns:serif="http://www.serif.com/" style="fill-rule:evenodd;clip-rule:evenodd;stroke-linejoin:round;stroke-miterlimit:2;">
    <g transform="matrix(1,0,0,1,-306,-297.353)">
        <g transform="matrix(1,0,0,1,18.5,-54)">
            <g transform="matrix(0.501608,0,0,0.418724,246.87,330.417)">
                <path d="M1014,293C1014,158.885 923.107,50 811.152,50L283.848,50C171.893,50 81,158.885 81,293L81,779C81,913.115 171.893,1022 283.848,1022L811.152,1022C923.107,1022 1014,913.115 1014,779L1014,293Z" style="fill:rgb(30,25,0);"/>
            </g>
            <g transform="matrix(0.501608,0,0,0.418724,246.87,330.417)">
                <clipPath id="_clip1">
                    <path d="M1014,293C1014,158.885 923.107,50 811.152,50L283.848,50C171.893,50 81,158.885 81,293L81,779C81,913.115 171.893,1022 283.848,1022L811.152,1022C923.107,1022 1014,913.115 1014,779L1014,293Z"/>
                </clipPath>
                <g clip-path="url(#_clip1)">
                    <g opacity="0.56">
                        <path d="M1014,293C1014,158.885 923.107,50 811.152,50L283.848,50C171.893,50 81,158.885 81,293L81,779C81,913.115 171.893,1022 283.848,1022L811.152,1022C923.107,1022 1014,913.115 1014,779L1014,293Z" style="fill:rgb(39,56,94);"/>
                        <clipPath id="_clip2">
                            <path d="M1014,293C1014,158.885 923.107,50 811.152,50L283.848,50C171.893,50 81,158.885 81,293L81,779C81,913.115 171.893,1022 283.848,1022L811.152,1022C923.107,1022 1014,913.115 1014,779L1014,293Z"/>
                        </clipPath>
                        <g clip-path="url(#_clip2)">
                            <g transform="matrix(7.22578,0,0,8.65608,-751.855,-2247.23)">
                                <text x="115.146px" y="324.875px" style="font-family:'Webdings', serif;font-size:24px;fill:white;">simple</text>
                                <text x="85.849px" y="348.875px" style="font-family:'Webdings', serif;font-size:24px;fill:white;">password</text>
                                <text x="73.849px" y="372.875px" style="font-family:'Webdings', serif;font-size:24px;fill:white;">generator</text>
                            </g>
                            <g transform="matrix(7.22578,0,0,8.65608,-751.855,-3106.02)">
                                <text x="133.849px" y="372.875px" style="font-family:'Webdings', serif;font-size:24px;fill:white;">word</text>
                                <text x="61.849px" y="396.875px" style="font-family:'Webdings', serif;font-size:24px;fill:white;">gesdwdweor</text>
                            </g>
                            <path d="M1014,293C1014,158.885 923.107,50 811.152,50L283.848,50C171.893,50 81,158.885 81,293L81,779C81,913.115 171.893,1022 283.848,1022L811.152,1022C923.107,1022 1014,913.115 1014,779L1014,293Z" style="fill:rgb(51,22,13);fill-opacity:0.22;"/>
                        </g>
                    </g>
                </g>
            </g>
            <g transform="matrix(0.969293,0,0,0.960787,312.586,384.437)">
                <text x="59.799px" y="103.68px" style="font-family:'LiberationMono', 'Liberation Mono', monospace;font-size:86.988px;fill:white;">simple</text>
                <text x="7.598px" y="190.668px" style="font-family:'LiberationMono', 'Liberation Mono', monospace;font-size:86.988px;fill:white;">password</text>
                <text x="-18.503px" y="277.656px" style="font-family:'LiberationMono', 'Liberation Mono', monospace;font-size:86.988px;fill:white;">generator</text>
            </g>
        </g>
    </g>
</svg>
